
<svg xmlns="http://www.w3.org/2000/svg" version="1.1" xmlns:xlink="http://www.w3.org/1999/xlink" preserveAspectRatio="none" x="0px" y="0px" width="3000px" height="800px" viewBox="0 0 3000 800">
<defs>
<g id="ioannis_0_Layer1_0_FILL">
<path fill="#000000" stroke="none" d="
M 487.85 171.45
L 487.85 173.85 459.4 174.75
Q 423.4 176.45 404.4 189.7 385.45 202.95 385.45 230.35 385.45 249 392.2 261.2 399 273.4 410.75 279.45 422.5 285.45 437.25 285.45 451.4 285.45 461.2 282.9 471 280.2 478.65 274.6 486.2 268.9 493.4 259.85
L 494.65 259.85 505.9 282.45 546.75 282.45 546.75 170.55
Q 546.75 140.9 528.5 124.9 510.3 108.8 477.9 108.8 454.7 108.8 436.05 112.75 417.35 116.65 402.6 124.15
L 419.65 163.05
Q 432.15 157.45 444.65 154 457 150.35 467.05 150.35 476.55 150.35 482.3 155.2 487.85 160 487.85 171.45
M 480.6 237.1
Q 472.95 243.9 462.25 243.9 454.55 243.9 449.9 239.85 445.25 235.6 445.25 226.9 445.25 217.55 451.85 212.55 458.35 207.45 474.6 206.85
L 488.15 206.25 488.15 219.5
Q 488.15 230.35 480.6 237.1
M 671.75 111.8
Q 662 114.85 654.45 120.55 646.9 126.3 641.5 134.4
L 639.25 134.4 631.25 111.8 586.85 111.8 586.85 282.45 645.7 282.45 645.7 207.75
Q 645.7 182.3 651.45 168.75 657.15 155.05 673.9 155.05 684.7 155.05 689.7 163.8 694.5 172.35 694.5 189.4
L 694.5 282.45 753.4 282.45 753.4 171.45
Q 753.4 138.65 736.7 123.7 719.95 108.8 693.6 108.8 681.55 108.8 671.75 111.8
M 878.3 111.8
Q 868.55 114.85 861 120.55 853.45 126.3 848.05 134.4
L 845.8 134.4 837.8 111.8 793.4 111.8 793.4 282.45 852.25 282.45 852.25 207.75
Q 852.25 182.3 858 168.75 863.7 155.05 880.45 155.05 891.25 155.05 896.25 163.8 901.05 172.35 901.05 189.4
L 901.05 282.45 959.95 282.45 959.95 171.45
Q 959.95 138.65 943.25 123.7 926.5 108.8 900.15 108.8 888.1 108.8 878.3 111.8
M 1058.75 111.8
L 999.9 111.8 999.9 282.45 1058.75 282.45 1058.75 111.8
M 1161.65 166.8
Q 1154.25 163.65 1151.7 161.2 1148.95 158.8 1148.95 155.65 1148.95 152.2 1152.75 150.35 1156.5 148.55 1163.45 148.55 1171.1 148.55 1184.05 152.05 1197 155.5 1209.65 161.2
L 1225.8 123.25
Q 1209.8 116.2 1194.9 112.55 1180 108.8 1163.15 108.8 1131.35 108.8 1112.1 121.45 1092.8 134.1 1092.8 159.1 1092.8 173.1 1097.45 182.75 1102.15 192.4 1111.65 199.3 1120.95 206.25 1135.1 212.1 1149.45 218 1157.4 221.45 1165.25 224.9 1168.4 227.65 1171.4 230.2 1171.4 233.95 1171.4 238.3 1166.9 240.6 1162.25 242.7 1152.3 242.7 1142.65 242.7 1125.95 239.55 1109.2 236.2 1093.1 228.85
L 1093.1 275.95
Q 1107.85 281.55 1122.3 283.5 1136.65 285.45 1154.85 285.45 1180.75 285.45 1196.7 278.4 1212.55 271.3 1219.75 258.8 1227 246.3 1227 230.05 1227 215 1222.3 205.2 1217.5 195.4 1207.85 188.65 1198.05 181.7 1183.15 175.7 1169 169.95 1161.65 166.8 Z"/>
</g>

<g id="fav_0_Layer1_0_FILL">
<path fill="#000000" stroke="none" d="
M 397.6 296.1
Q 397.6 267.75 386.75 248.15 375.75 228.5 356.55 218.25 337.4 208 312.8 208 286.1 208 266.95 218.25 247.65 228.5 237.4 248.15 226.95 267.75 226.95 296.1 226.95 317.55 233.3 334.15 239.5 350.7 250.95 362.05 262.45 373.35 277.95 379.25 293.35 384.95 311.9 384.95 331.85 384.95 347.65 379.25 363.5 373.35 374.65 362.05 385.85 350.7 391.7 334.15 397.6 317.55 397.6 296.1
M 335.15 271.65
Q 337.55 281.45 337.55 296.1 337.55 310.75 335.15 320.85 332.6 330.8 327.15 336.1 321.7 341.2 312.5 341.2 303.3 341.2 297.75 336.1 292 330.8 289.45 320.85 286.85 310.75 286.85 296.1 286.85 274.25 292.9 263.05 298.8 251.9 312.2 251.9 321.55 251.9 327.15 256.9 332.6 261.85 335.15 271.65
M 83.6 188.1
Q 86.45 185.3 89.75 181.3 89.4 188 89.25 196.3 89 204.65 89 211.55 89 218.35 89 220.9
L 89 313.6 140.4 313.6 140.4 126.2 94.75 126.2 30.4 178.6 56.7 210.9 78 193.35
Q 80.65 190.9 83.6 188.1 Z"/>
</g>

<path id="ioannis_0_Layer1_0_1_STROKES" stroke="#344E41" stroke-width="20" stroke-linejoin="round" stroke-linecap="square" fill="none" d="
M 1009.25 65.4
Q 1006.5 63.5 1004 61 993.55 50.55 993.55 35.75 993.55 20.95 1004 10.45 1014.5 0 1029.3 0 1044.1 0 1054.55 10.45 1065.05 20.95 1065.05 35.75 1065.05 50.55 1054.55 61 1044.1 71.5 1029.3 71.5 1021.9 71.5 1015.55 68.85 1013.3 67.9 1011.2 66.65 1010.2 66.05 1009.25 65.4 Z"/>

<path id="fav_0_Layer1_0_1_STROKES" stroke="#344E41" stroke-width="10" stroke-linejoin="round" stroke-linecap="square" fill="none" d="
M 243 183.3
L 243.9 184.15"/>

<path id="pcb_0_Layer0_0_1_STROKES" stroke="#344E41" stroke-width="20" stroke-linejoin="round" stroke-linecap="square" fill="none" d="
M 36.1 239.05
Q 36.75 239.05 37.4 239.1 51.15 239.65 61 249.5 71.5 260 71.5 274.8 71.5 289.6 61 300.05 50.55 310.55 35.75 310.55 28.35 310.55 22 307.9 15.7 305.3 10.45 300.05 0 289.6 0 274.8 0 260 10.45 249.5 20.05 239.95 33.25 239.15 34.35 239.05 35.4 239.05 35.55 239.05 35.65 239.05 35.7 239.05 35.75 239.05 35.95 239.05 36.1 239.05
L 36.1 172.95 112.2 65.4
Q 109.45 63.5 106.95 61 96.5 50.55 96.5 35.75 96.5 20.95 106.95 10.45 117.45 0 132.25 0 147.05 0 157.5 10.45 168 20.95 168 35.75 168 50.55 157.5 61 147.05 71.5 132.25 71.5 124.85 71.5 118.5 68.85 116.25 67.9 114.15 66.65 113.15 66.05 112.2 65.4"/>

<path id="pcb_0_Layer0_0_2_STROKES" stroke="#344E41" stroke-width="10" stroke-linejoin="round" stroke-linecap="square" fill="none" d="
M 63.7 55
Q 63.7 57.4 62.55 59.35 62 60.2 61.25 60.95 58.8 63.4 55.35 63.4 51.85 63.4 49.4 60.95 46.95 58.5 46.95 55 46.95 51.55 49.4 49.1 51.85 46.65 55.35 46.65 58.8 46.65 61.25 49.1 63.7 51.55 63.7 55 Z
M 63.35 63.3
L 92.4 90.5
M 46.6 80.05
L 76.55 108.1
M 31.1 96.35
L 61.05 124.4"/>
</defs>

<g transform="matrix( 2.3126373291015625, 0, 0, 2.3126373291015625, 90.35,42.25) ">
<g transform="matrix( 1, 0, 0, 1, 0,0) ">
<use xlink:href="#ioannis_0_Layer1_0_FILL"/>

<use xlink:href="#ioannis_0_Layer1_0_1_STROKES"/>
</g>

<g transform="matrix( 1, 0, 0, 1, -30.4,-99.8) ">
<g transform="matrix( 1, 0, 0, 1, 0,0) ">
<use xlink:href="#fav_0_Layer1_0_FILL"/>

<use xlink:href="#fav_0_Layer1_0_1_STROKES"/>
</g>

<g transform="matrix( 1, 0, 0, 1, 143.6,99.8) ">
<g transform="matrix( 1, 0, 0, 1, 0,0) ">
<use xlink:href="#pcb_0_Layer0_0_1_STROKES"/>

<use xlink:href="#pcb_0_Layer0_0_2_STROKES"/>
</g>
</g>
</g>
</g>
</svg>
