
<svg xmlns="http://www.w3.org/2000/svg" version="1.1" xmlns:xlink="http://www.w3.org/1999/xlink" preserveAspectRatio="none" x="0px" y="0px" width="2000px" height="2000px" viewBox="0 0 2000 2000">
<defs>
<g id="fav_0_Layer1_0_FILL">
<path fill="#000000" stroke="none" d="
M 83.6 188.1
Q 86.45 185.3 89.75 181.3 89.4 188 89.25 196.3 89 204.65 89 211.55 89 218.35 89 220.9
L 89 313.6 140.4 313.6 140.4 126.2 94.75 126.2 30.4 178.6 56.7 210.9 78 193.35
Q 80.65 190.9 83.6 188.1
M 397.6 296.1
Q 397.6 267.75 386.75 248.15 375.75 228.5 356.55 218.25 337.4 208 312.8 208 286.1 208 266.95 218.25 247.65 228.5 237.4 248.15 226.95 267.75 226.95 296.1 226.95 317.55 233.3 334.15 239.5 350.7 250.95 362.05 262.45 373.35 277.95 379.25 293.35 384.95 311.9 384.95 331.85 384.95 347.65 379.25 363.5 373.35 374.65 362.05 385.85 350.7 391.7 334.15 397.6 317.55 397.6 296.1
M 327.15 256.9
Q 332.6 261.85 335.15 271.65 337.55 281.45 337.55 296.1 337.55 310.75 335.15 320.85 332.6 330.8 327.15 336.1 321.7 341.2 312.5 341.2 303.3 341.2 297.75 336.1 292 330.8 289.45 320.85 286.85 310.75 286.85 296.1 286.85 274.25 292.9 263.05 298.8 251.9 312.2 251.9 321.55 251.9 327.15 256.9 Z"/>
</g>

<path id="fav_0_Layer1_0_1_STROKES" stroke="#344E41" stroke-width="10" stroke-linejoin="round" stroke-linecap="square" fill="none" d="
M 243 183.3
L 243.9 184.15"/>

<path id="pcb_0_Layer0_0_1_STROKES" stroke="#344E41" stroke-width="20" stroke-linejoin="round" stroke-linecap="square" fill="none" d="
M 36.1 239.05
Q 36.75 239.05 37.4 239.1 51.15 239.65 61 249.5 71.5 260 71.5 274.8 71.5 289.6 61 300.05 50.55 310.55 35.75 310.55 28.35 310.55 22 307.9 15.7 305.3 10.45 300.05 0 289.6 0 274.8 0 260 10.45 249.5 20.05 239.95 33.25 239.15 34.35 239.05 35.4 239.05 35.55 239.05 35.65 239.05 35.7 239.05 35.75 239.05 35.95 239.05 36.1 239.05
L 36.1 172.95 112.2 65.4
Q 109.45 63.5 106.95 61 96.5 50.55 96.5 35.75 96.5 20.95 106.95 10.45 117.45 0 132.25 0 147.05 0 157.5 10.45 168 20.95 168 35.75 168 50.55 157.5 61 147.05 71.5 132.25 71.5 124.85 71.5 118.5 68.85 116.25 67.9 114.15 66.65 113.15 66.05 112.2 65.4"/>

<path id="pcb_0_Layer0_0_2_STROKES" stroke="#344E41" stroke-width="10" stroke-linejoin="round" stroke-linecap="square" fill="none" d="
M 63.7 55
Q 63.7 57.4 62.55 59.35 62 60.2 61.25 60.95 58.8 63.4 55.35 63.4 51.85 63.4 49.4 60.95 46.95 58.5 46.95 55 46.95 51.55 49.4 49.1 51.85 46.65 55.35 46.65 58.8 46.65 61.25 49.1 63.7 51.55 63.7 55 Z
M 31.1 96.35
L 61.05 124.4
M 46.6 80.05
L 76.55 108.1
M 63.35 63.3
L 92.4 90.5"/>
</defs>

<g transform="matrix( 5.4350433349609375, 0, 0, 5.4350433349609375, -160.8,-366.35) ">
<g transform="matrix( 1, 0, 0, 1, 0,0) ">
<use xlink:href="#fav_0_Layer1_0_FILL"/>

<use xlink:href="#fav_0_Layer1_0_1_STROKES"/>
</g>

<g transform="matrix( 1, 0, 0, 1, 143.6,99.8) ">
<g transform="matrix( 1, 0, 0, 1, 0,0) ">
<use xlink:href="#pcb_0_Layer0_0_1_STROKES"/>

<use xlink:href="#pcb_0_Layer0_0_2_STROKES"/>
</g>
</g>
</g>
</svg>
